<svg width="182" height="198" viewBox="0 0 182 198" fill="none" xmlns="http://www.w3.org/2000/svg">
<path d="M25.1216 45.2391C25.1216 45.2391 16.7235 51.783 23.5826 63.8167C30.1266 75.2687 28.5996 94.2341 18.5655 109.188C8.54354 124.155 15.5965 163.043 0 171.259C0 171.259 22.395 181.112 42.754 177.694L65.1732 40.0402C38.3793 34.1143 25.1216 45.2391 25.1216 45.2391Z" fill="#B1CCF2"/>
<path d="M145.422 160.098C132.128 162.885 122.869 163.479 117.537 163.491C113.938 163.503 110.327 163.588 106.728 163.794C96.6449 164.376 75.5103 163.2 71.6687 143.944C63.4039 102.499 88.6831 72.8086 65.1732 40.0402C65.1732 40.0402 45.8684 29.4728 25.1216 45.239C25.1216 45.239 47.5408 36.3925 35.289 98.3422C30.866 120.716 22.6092 177.063 65 197.015H182V157.614C168.672 157.295 155.247 158.035 145.422 160.098Z" fill="#D7E6FF"/>
<path d="M37.5067 44.3787C37.337 44.3787 37.1795 44.2817 37.1189 44.1121C37.0341 43.8939 37.131 43.6516 37.3491 43.5546C37.4582 43.5062 40.0031 42.464 44.4142 41.7611C48.4739 41.1188 54.9331 40.6825 62.6647 42.2337C62.8949 42.2822 63.0403 42.5003 62.9919 42.7306C62.9434 42.9608 62.7253 43.1062 62.495 43.0578C54.8967 41.543 48.5587 41.9671 44.5718 42.5973C40.2576 43.2759 37.7006 44.3302 37.6763 44.3423C37.6157 44.3666 37.5673 44.3787 37.5067 44.3787Z" fill="#B1CCF2"/>
<path d="M41.9664 53.3707C41.7967 53.3707 41.6392 53.2738 41.5786 53.1041C41.4938 52.886 41.5907 52.6436 41.8089 52.5467C41.93 52.4982 44.7779 51.3348 49.3344 50.4502C53.5396 49.6382 60.0351 48.9353 67.1002 50.1957C67.3304 50.232 67.4879 50.4623 67.4395 50.6925C67.4031 50.9228 67.1729 51.0803 66.9426 51.0318C53.6729 48.6687 42.233 53.2859 42.1118 53.3222C42.0755 53.3707 42.0149 53.3707 41.9664 53.3707Z" fill="#B1CCF2"/>
<path d="M44.0022 63.4651C43.8083 63.4651 43.6266 63.3197 43.5902 63.1258C43.5417 62.8955 43.6993 62.6774 43.9295 62.6289C44.0871 62.5926 59.4412 59.6114 70.3478 61.7322C70.5781 61.7806 70.7235 61.9988 70.6872 62.229C70.6387 62.4593 70.4205 62.6047 70.1903 62.5683C59.4533 60.4718 44.2567 63.4288 44.0992 63.4651C44.0628 63.4651 44.0265 63.4651 44.0022 63.4651Z" fill="#B1CCF2"/>
<path d="M71.8869 73.9115C71.8748 73.9115 71.8627 73.9115 71.8505 73.9115C58.8959 72.8208 43.4448 73.8994 43.2873 73.9115C43.057 73.9236 42.851 73.754 42.8389 73.5237C42.8267 73.2935 42.9964 73.0875 43.2267 73.0753C43.3842 73.0632 58.8959 71.9847 71.9232 73.0753C72.1535 73.0996 72.3353 73.3056 72.311 73.5358C72.2989 73.7419 72.105 73.9115 71.8869 73.9115Z" fill="#B1CCF2"/>
<path d="M70.2631 85.3026C70.251 85.3026 70.251 85.3026 70.2631 85.3026L41.9543 84.7209C41.7241 84.7209 41.5302 84.527 41.5423 84.2846C41.5423 84.0544 41.7362 83.8605 41.9785 83.8726L70.2752 84.4543C70.5055 84.4543 70.6994 84.6482 70.6873 84.8906C70.6751 85.1208 70.4934 85.3026 70.2631 85.3026Z" fill="#B1CCF2"/>
<path d="M67.5969 96.5485H40.8514C40.6211 96.5485 40.4272 96.3546 40.4272 96.1243C40.4272 95.8941 40.6211 95.7002 40.8514 95.7002H67.5969C67.8272 95.7002 68.0211 95.8941 68.0211 96.1243C68.0211 96.3546 67.8272 96.5485 67.5969 96.5485Z" fill="#B1CCF2"/>
<path d="M38.4399 108.776C38.2096 108.776 38.0278 108.595 38.0157 108.364C38.0036 108.134 38.1854 107.928 38.4277 107.928L67.0153 106.825C67.2455 106.813 67.4515 106.995 67.4515 107.237C67.4636 107.468 67.2819 107.674 67.0395 107.674L38.452 108.776H38.4399Z" fill="#B1CCF2"/>
<path d="M36.3919 121.791C36.1738 121.791 35.992 121.634 35.9678 121.416C35.9435 121.186 36.1132 120.98 36.3434 120.943L65.8641 117.792C66.0943 117.768 66.3003 117.938 66.3367 118.168C66.3609 118.398 66.1913 118.604 65.961 118.641L36.4404 121.791C36.4283 121.791 36.404 121.791 36.3919 121.791Z" fill="#B1CCF2"/>
<path d="M36.3918 135.74C36.1979 135.74 36.0161 135.607 35.9798 135.401C35.9313 135.17 36.0767 134.952 36.307 134.904L65.8276 128.748C66.0579 128.699 66.276 128.845 66.3245 129.075C66.373 129.305 66.2275 129.523 65.9973 129.572L36.4766 135.728C36.4524 135.74 36.416 135.74 36.3918 135.74Z" fill="#B1CCF2"/>
<path d="M38.4399 150.197C38.2581 150.197 38.0884 150.076 38.04 149.906C37.9673 149.688 38.0884 149.446 38.3187 149.373L67.4758 140.09C67.6939 140.018 67.9363 140.139 68.009 140.369C68.0817 140.587 67.9605 140.83 67.7303 140.902L38.5732 150.185C38.5247 150.185 38.4762 150.197 38.4399 150.197Z" fill="#B1CCF2"/>
<path d="M41.9664 163.382C41.7967 163.382 41.6513 163.285 41.5786 163.128C41.4816 162.91 41.5786 162.667 41.7967 162.57L69.0876 150.694C69.3057 150.597 69.5481 150.694 69.645 150.912C69.742 151.131 69.645 151.373 69.4269 151.47L42.1361 163.346C42.0755 163.37 42.0149 163.382 41.9664 163.382Z" fill="#B1CCF2"/>
<path d="M49.7585 178.833C49.6252 178.833 49.504 178.773 49.4192 178.664C49.2859 178.47 49.3223 178.215 49.504 178.07L74.1894 159.832C74.3833 159.698 74.6378 159.735 74.7832 159.916C74.9165 160.11 74.8801 160.365 74.6984 160.51L50.013 178.749C49.9403 178.809 49.8433 178.833 49.7585 178.833Z" fill="#B1CCF2"/>
<path d="M67.5969 186.759C67.5121 186.759 67.4273 186.734 67.3546 186.686C67.1607 186.553 67.1122 186.286 67.2455 186.092L81.8968 164.388C82.0301 164.194 82.2967 164.146 82.4906 164.279C82.6845 164.412 82.7329 164.679 82.5996 164.873L67.9484 186.589C67.8636 186.698 67.7302 186.759 67.5969 186.759Z" fill="#B1CCF2"/>
<path d="M87.6288 192.333C87.6046 192.333 87.5803 192.333 87.544 192.321C87.3137 192.273 87.1683 192.054 87.2047 191.824L92.0278 167.139C92.0763 166.909 92.2944 166.763 92.5247 166.799C92.7549 166.848 92.9003 167.066 92.864 167.296L88.0408 191.982C88.0045 192.2 87.8348 192.333 87.6288 192.333Z" fill="#B1CCF2"/>
<path d="M119.052 192.333C118.834 192.333 118.64 192.163 118.628 191.933L117.222 169.308C117.21 169.078 117.38 168.872 117.622 168.859C117.852 168.847 118.058 169.017 118.07 169.259L119.476 191.885C119.488 192.115 119.319 192.321 119.076 192.333C119.064 192.333 119.052 192.333 119.052 192.333Z" fill="#B1CCF2"/>
<path d="M130.831 186.759C130.625 186.759 130.444 186.613 130.407 186.407L127.499 168.217C127.462 167.987 127.62 167.769 127.85 167.733C128.08 167.696 128.299 167.854 128.335 168.084L131.243 186.274C131.28 186.504 131.122 186.722 130.892 186.759C130.868 186.759 130.843 186.759 130.831 186.759Z" fill="#B1CCF2"/>
<path d="M151.118 178.833C150.887 178.833 150.693 178.64 150.693 178.409V162.946C150.693 162.716 150.887 162.522 151.118 162.522C151.348 162.522 151.542 162.716 151.542 162.946V178.409C151.542 178.652 151.36 178.833 151.118 178.833Z" fill="#B1CCF2"/>
<path d="M160.958 175.901C160.946 175.901 160.934 175.901 160.921 175.901C160.691 175.889 160.509 175.683 160.534 175.44L161.649 161.14C161.673 160.91 161.867 160.728 162.109 160.753C162.339 160.765 162.521 160.971 162.497 161.213L161.382 175.513C161.37 175.731 161.176 175.901 160.958 175.901Z" fill="#B1CCF2"/>
<path d="M171.355 171.102C171.331 171.102 171.307 171.102 171.283 171.09C171.053 171.053 170.895 170.835 170.943 170.593L172.616 161.092C172.652 160.862 172.882 160.704 173.113 160.752C173.343 160.789 173.5 161.007 173.452 161.249L171.78 170.75C171.743 170.956 171.562 171.102 171.355 171.102Z" fill="#B1CCF2"/>
<path d="M75.3285 50.474L72.6745 48.6562L70.9658 50.2317C70.9658 50.2317 71.9474 52.4493 72.9411 55.2608C73.3774 56.5212 76.6252 54.0732 75.3285 50.474Z" fill="#F5C5B5"/>
<path d="M120.7 3.28461C120.7 3.28461 124.857 -1.34465 131.922 0.388293C138.987 2.12124 137.266 6.82321 140.078 10.6648C142.598 14.1064 142.356 18.2025 140.078 22.3106C138.357 25.413 143.325 26.3219 142.356 30.6724C141.314 35.3623 123.366 38.8282 115.089 34.2352C106.812 29.6545 113.502 21.7653 113.126 17.5723C112.75 13.3793 120.7 3.28461 120.7 3.28461Z" fill="#060B4F"/>
<path d="M140 196.5C138.74 196.5 136.575 197.047 136.915 195.836C137.545 193.63 139.011 191.655 138.793 189.183C138.635 186.565 137.605 174.095 137.387 171.259H147.288C147.276 174.434 147.349 185.898 147.288 188.831C146.645 190.839 149.293 194.352 149.265 196.5C145 196.5 141.975 196.5 140 196.5Z" fill="#F5C5B5"/>
<path d="M113.078 196.841C108 196.5 95.6691 196.772 92.4999 196.5C91.2274 196.5 88.9981 196.817 89.7373 195.787C90.6341 194.539 92.2822 193.909 93.8334 193.485C96.5843 192.733 102.947 192.939 103.686 188.734C103.855 186.323 101.88 173.889 101.686 171.259H114.302C113.72 178.652 111.672 189.558 113.078 196.841Z" fill="#F5C5B5"/>
<path d="M119.052 34.1987L109.018 62.9923L107.503 67.3428C105.588 68.2153 103.019 68.9182 100.075 69.2212C96.3662 69.5968 92.0884 69.3424 87.8227 67.9972C81.8483 66.1067 76.5162 60.0475 73.9592 57.1633C73.4017 56.5331 72.9897 55.4788 73.6198 54.9092C74.7953 53.8549 75.2195 51.7463 75.0135 50.8253C74.9165 50.3648 75.4255 49.8195 75.8618 50.0134C94.8878 58.4478 99.8564 50.4739 106.437 43.2512C113.114 35.9074 119.052 34.1987 119.052 34.1987Z" fill="#C7DBF5"/>
<path d="M113 196.5C113 196.5 90.5 197 89.495 196.151C90.1979 194.696 91.7975 194.054 93.276 193.642C108.582 196.296 112.605 189.825 112.605 189.825C112.569 191.897 113.036 193.955 113 196.5Z" fill="#060B4F"/>
<path d="M109.018 62.9922L107.503 67.3428C105.588 68.2153 103.019 68.9182 100.074 69.2211C104.498 66.1067 104.752 61.441 104.304 55.8423C103.795 49.5286 107.976 45.9536 107.976 45.9536L109.018 62.9922Z" fill="#6893C4"/>
<path d="M136.827 196.5C136.769 195.562 137.229 194.452 137.751 193.678C143.519 189.703 148.512 193.703 148.512 193.703C149.01 194.513 149.381 195.593 149.32 196.5C147 197 137.5 196.5 136.827 196.5Z" fill="#060B4F"/>
<path d="M121.985 3.13906C111.611 0.751721 108.157 17.1602 114.641 24.0313L121.985 3.13906Z" fill="#060B4F"/>
<path d="M139.351 89.0353H106.437C106.267 76.02 107.77 62.8593 110.824 50.2197C112.351 44.0636 116.774 36.8046 119.04 34.187L120.325 33.3993V30.5151C120.312 30.6605 122.833 17.2817 123.96 16.9303C126.844 15.9244 129.571 25.3405 128.686 28.6004L128.856 33.3145C143.144 37.871 135.86 54.0977 136.83 64.9922C136.915 73.0025 137.69 81.2189 139.351 89.0353Z" fill="#F5C5B5"/>
<path d="M129.462 21.2199C129.437 21.3653 129.413 21.4986 129.389 21.6441C129.195 21.5229 128.601 26.4066 128.771 30.3936C125.281 31.9811 121.064 31.6539 120.349 31.5085C120.349 25.9825 120.191 18.3115 123.984 16.93C126.699 15.7787 129.934 18.2509 129.462 21.2199Z" fill="#CB9687"/>
<path d="M133.109 16.1668C133.231 19.8387 132.807 24.0923 130.443 27.0007C129.486 28.1641 128.214 29.0366 126.808 29.6062C118.943 33.5447 107.297 25.7646 112.435 17.4635C114.374 14.8216 114.132 10.8589 115.586 8.31399C117.549 3.80591 123.609 2.84856 127.487 5.45403C130.989 7.82926 132.77 11.6829 133.109 16.1668Z" fill="#F5C5B5"/>
<path d="M116.762 23.6317L120.979 20.3354C121.948 23.0863 119.343 25.4737 116.762 23.6317Z" fill="#F9F8F3"/>
<path d="M119.076 16.615C118.628 16.0576 119.512 15.3668 119.949 15.9364C120.397 16.4938 119.512 17.1846 119.076 16.615Z" fill="#C87E75"/>
<path d="M114.386 16.7239C113.938 16.1664 114.823 15.4757 115.259 16.0453C115.707 16.6148 114.823 17.2935 114.386 16.7239Z" fill="#C87E75"/>
<path d="M116.798 23.8375C116.592 23.886 116.459 23.5951 116.628 23.4739C116.762 23.4982 121.052 19.693 121.136 20.2141C121.209 20.2989 121.197 20.4322 121.1 20.5049C120.991 20.5534 116.919 23.8133 116.798 23.8375Z" fill="#C87E75"/>
<path d="M117.016 21.0867C116.022 21.2685 114.362 20.8928 115.441 19.7779C116.35 19.0266 116.689 16.7725 116.701 16.7483C117.598 15.7424 116.737 19.3295 115.707 20.1051C115.004 20.7474 116.762 20.9049 117.404 20.5293C117.501 20.4687 117.634 20.505 117.683 20.6141C117.816 20.9655 117.271 21.014 117.016 21.0867Z" fill="#C87E75"/>
<path d="M149.421 188.213C149.421 188.213 142.283 190.854 137.327 188.697C134.309 172.568 125.56 140.029 122.578 108.606C122.578 107.334 112.726 152.802 115.247 187.667C112.096 188.782 105.249 190.479 102.074 187.849C99.7836 171.428 93.385 118.955 104.801 76.2377C104.801 76.2377 123.403 78.1524 141.326 73.4868C141.326 73.4868 149.142 86.9747 147.179 115.829C145.519 143.823 146.755 171.695 149.421 188.213Z" fill="#F8D94F"/>
<path d="M138.417 86.6597L134.903 90.2467L139.981 94.8154L144.004 91.0466L138.417 86.6597Z" fill="#F5C5B5"/>
<path d="M145.386 80.528C127.329 86.1146 111.175 83.7394 105.504 82.576C104.074 82.2852 103.007 81.0733 102.922 79.6191C102.68 75.5837 105.152 73.4144 106.849 67.1492C108.182 62.217 103.601 54.4369 106.146 49.2259C110.86 39.5917 119.052 34.1869 119.052 34.1869C119.052 34.1869 121.027 40.4279 130.904 34.1021C140.078 39.5917 145.386 80.528 145.386 80.528Z" fill="#C7DBF5"/>
<path d="M133.109 16.1668C133.231 19.8387 132.806 24.0923 130.443 27.0007C131.631 24.7588 131.764 20.2386 131.764 20.2386L130.649 18.4572C117.489 16.8575 116.628 6.71436 116.628 6.71436C118.167 4.73905 120.591 3.92711 123.075 4.06041C129.183 4.43608 132.722 10.2651 133.109 16.1668Z" fill="#CB9687"/>
<path d="M147.325 186.335C140.332 169.211 145.083 112.121 140.805 96.0276C139.52 95.3126 133.437 91.6407 130.965 85.0846C130.686 84.3938 131.801 83.9333 132.067 84.6726C134.77 91.8831 141.762 94.9006 141.871 95.4701C141.98 95.8579 144.61 105.177 143.98 124.179C142.659 142.987 146.246 172.689 147.325 186.335Z" fill="#CDA52B"/>
<path d="M145.422 90.9257C144.452 91.6044 143.313 92.4284 142.186 91.6529C140.986 90.9257 137.436 87.7022 138.72 85.1695C151.481 63.9257 127.717 60.3266 130.904 34.1143C149.724 36.5016 172.979 73.8629 145.422 90.9257Z" fill="#C7DBF5"/>
<path d="M117.767 5.5749C117.767 5.5749 118.676 15.5727 130.54 17.451L134.091 14.482C136.491 6.12024 127.305 -3.69574 117.767 5.5749Z" fill="#060B4F"/>
<path d="M115.247 187.668C115.247 187.668 106.037 191.097 102.074 187.849C102.074 187.849 101.917 186.662 101.638 184.65C101.638 184.65 108.521 187.147 115.053 183.62C115.101 184.977 115.162 186.323 115.247 187.668Z" fill="#CDA52B"/>
<path d="M149.421 188.213C149.421 188.213 142.283 190.855 137.327 188.698C137.327 188.698 137.036 187.28 136.539 184.771C136.539 184.771 140.999 187.098 148.779 184.202C148.985 185.789 149.203 187.146 149.421 188.213Z" fill="#CDA52B"/>
<path d="M115.053 183.62C115.101 184.977 115.174 186.322 115.247 187.667C115.247 187.667 114.229 188.043 112.714 188.431C112.75 164.206 112.726 125.112 122.578 108.594C122.578 108.606 113.635 145.616 115.053 183.62Z" fill="#CDA52B"/>
<path d="M122.578 109.188C121.56 108.97 121.33 105.843 120.155 101.238C120.094 100.923 120.3 100.608 120.615 100.548C120.93 100.487 121.245 100.693 121.306 101.008C121.997 105.553 124.033 109.115 122.578 109.188Z" fill="#CDA52B"/>
<path d="M135.727 17.536C135.63 21.7654 130.48 21.6684 130.54 17.4512C130.625 13.2219 135.776 13.3067 135.727 17.536Z" fill="#F5C5B5"/>
<path d="M134.6 18.6143C134.467 18.6386 134.333 18.5295 134.358 18.3841C134.709 16.0816 133.582 15.3545 132.237 16.2391C132.007 16.3845 131.789 16.0331 132.019 15.8877C133.582 14.8576 135.194 15.6695 134.77 18.4326C134.758 18.5295 134.697 18.6022 134.6 18.6143Z" fill="#C87E75"/>
<path d="M132.649 18.6993C132.007 18.772 132.831 16.5786 134.358 16.1786C134.467 16.1544 134.588 16.215 134.612 16.3241C134.636 16.4331 134.576 16.5543 134.467 16.5786C132.916 17.0512 133.013 18.5781 132.649 18.6993Z" fill="#C87E75"/>
<path d="M133.861 19.8383C133.982 20.4321 133.049 20.6138 132.94 20.02C132.819 19.4141 133.752 19.2445 133.861 19.8383Z" fill="#060B4F"/>
<path d="M113.078 197H89.3622C89.3182 196.724 89.3553 196.43 89.495 196.15H113.041C113.065 196.393 113.078 196.782 113.078 197Z" fill="#6283A8"/>
<path d="M136.869 197C136.789 196.734 136.771 196.445 136.83 196.15H149.275C149.331 196.445 149.312 196.734 149.234 197H136.869Z" fill="#6283A8"/>
<path d="M120.337 33.4112C120.337 33.4112 118.143 32.9749 116.556 35.2532C116.556 35.2532 117.343 38.2101 120.93 39.5795C120.93 39.5795 121.318 38.1737 122.894 37.1437C122.894 37.1437 123.899 38.0526 124.057 39.5795C124.057 39.5795 130.395 38.7918 132.419 34.3807C132.419 34.3807 130.94 33.1203 128.856 33.3142C128.856 33.3142 126.117 36.6468 123.184 36.2711C120.361 35.9197 120.337 33.4112 120.337 33.4112Z" fill="white"/>
<path d="M140.768 81.5581C140.72 81.5581 140.659 81.546 140.611 81.5218C140.429 81.4369 140.356 81.2188 140.441 81.037C145.046 71.3543 141.289 66.1676 137.969 61.599C137.387 60.7991 136.854 60.0599 136.357 59.2964C132.964 54.0734 132.104 48.9594 132.067 48.7412C132.031 48.5473 132.164 48.3534 132.37 48.3292C132.564 48.2929 132.758 48.4262 132.782 48.6322C132.794 48.6806 133.655 53.8189 136.963 58.9087C137.448 59.66 137.993 60.3992 138.563 61.1869C140.211 63.4531 142.065 66.0222 142.889 69.2336C143.822 72.9055 143.24 76.8804 141.108 81.3642C141.035 81.4854 140.902 81.5581 140.768 81.5581Z" fill="#6893C4"/>
<path d="M114.035 15.2093C114.023 15.2093 114.023 15.2093 114.011 15.2093C113.914 15.2093 113.829 15.1245 113.829 15.0275C113.829 14.9306 113.914 14.8457 114.011 14.8457C114.023 14.8457 115.162 14.8579 116.071 13.9369C116.143 13.8641 116.253 13.8641 116.325 13.9369C116.398 14.0096 116.398 14.1186 116.325 14.1913C115.38 15.1729 114.217 15.2093 114.035 15.2093Z" fill="#C87E75"/>
<path d="M120.676 15.2091C120.603 15.2091 120.543 15.1728 120.506 15.1C119.973 13.864 118.652 13.8518 118.604 13.8518C118.507 13.8518 118.422 13.767 118.422 13.6701C118.422 13.5731 118.507 13.4883 118.604 13.4883C118.664 13.4883 120.215 13.5004 120.846 14.9546C120.882 15.0516 120.846 15.1485 120.749 15.197C120.724 15.197 120.7 15.2091 120.676 15.2091Z" fill="#C87E75"/>
<path d="M71.5718 51.3708C70.6992 49.3834 69.0632 47.7352 67.2455 46.5597C66.5426 46.1114 67.1485 44.9843 67.8999 45.2994C68.4937 45.5176 69.0996 45.7599 69.657 46.0629C71.4385 46.9839 73.0866 48.2563 74.2742 49.8923C75.2437 51.6616 72.5534 53.1401 71.5718 51.3708Z" fill="#F5C5B5"/>
</svg>
