<svg width="290" height="100" viewBox="0 0 290 100" fill="none" xmlns="http://www.w3.org/2000/svg">
    <rect width="290" height="100" fill="white"/>
    <path fill-rule="evenodd" clip-rule="evenodd"
          d="M173.136 31H144.707C143.751 31 142.95 31.7229 142.853 32.6736L141.352 47.308H128.58C127.808 47.308 127.183 47.9338 127.183 48.7058C127.183 49.4778 127.808 50.1036 128.58 50.1036H141.065L140.731 53.3652H126.251C125.479 53.3652 124.853 53.991 124.853 54.763C124.853 55.535 125.479 56.1609 126.251 56.1609H140.444L140.157 58.9565H133.24C132.468 58.9565 131.842 59.5823 131.842 60.3543C131.842 61.1263 132.468 61.7521 133.24 61.7521H139.871L139.584 64.5478H117.398C116.626 64.5478 116 65.1736 116 65.9456C116 66.7176 116.626 67.3435 117.398 67.3435H143.957L143.962 67.3435H170.209C171.174 67.3435 171.979 66.6072 172.065 65.6463L174.992 33.0304C175.09 31.9396 174.231 31 173.136 31Z"
          fill="#CBD7F4"/>
    <path d="M144.366 53.6698L145.905 35.964C145.989 35.0009 146.795 34.2617 147.762 34.2617H169.88C170.973 34.2617 171.832 35.198 171.737 36.2869L170.197 53.9927C170.113 54.9558 169.307 55.695 168.34 55.695H146.222C145.129 55.695 144.271 54.7588 144.366 53.6698Z"
          fill="#F8FAFF"/>
    <path fill-rule="evenodd" clip-rule="evenodd"
          d="M121.125 48.7059C121.125 47.9339 121.751 47.3081 122.523 47.3081H124.387C125.159 47.3081 125.785 47.9339 125.785 48.7059C125.785 49.4779 125.159 50.1038 124.387 50.1038H122.523C121.751 50.1038 121.125 49.4779 121.125 48.7059Z"
          fill="#CBD7F4"/>
    <path d="M150.552 38.5982L146.078 41.6839C145.62 41.9998 145.327 42.5038 145.279 43.0581L144.364 53.6712C144.27 54.7597 145.128 55.695 146.221 55.695H168.388C169.335 55.695 170.131 54.9853 170.24 54.0449L170.653 50.4663C170.713 49.9392 170.547 49.4111 170.194 49.0145L166.31 44.6451C165.66 43.9141 164.556 43.8097 163.781 44.4061L160.68 46.791C159.825 47.4489 158.592 47.2453 157.993 46.3476L153.161 39.0987C152.583 38.2327 151.409 38.0073 150.552 38.5982Z"
          fill="#B7C4E4"/>
    <path d="M163.526 39.3867C163.526 40.416 162.692 41.2505 161.662 41.2505C160.633 41.2505 159.799 40.416 159.799 39.3867C159.799 38.3574 160.633 37.5229 161.662 37.5229C162.692 37.5229 163.526 38.3574 163.526 39.3867Z"
          fill="#F8D94F"/>
    <path fill-rule="evenodd" clip-rule="evenodd"
          d="M121.125 60.3544C121.125 59.5824 121.751 58.9565 122.523 58.9565L129.046 58.9565C129.818 58.9565 130.444 59.5824 130.444 60.3544C130.444 61.1264 129.818 61.7522 129.046 61.7522L122.523 61.7522C121.751 61.7522 121.125 61.1264 121.125 60.3544Z"
          fill="#CBD7F4"/>
    <rect x="79.6779" y="63.5435" width="4.1759" height="14.3323" transform="rotate(45 79.6779 63.5435)"
          fill="#EFF3FD"/>
    <rect x="68.9529" y="67.1816" width="4.1759" height="4.1759" transform="rotate(45 68.9529 67.1816)" fill="#EFF3FD"/>
    <mask id="mask0_118_891" style="mask-type:alpha" maskUnits="userSpaceOnUse" x="0" y="0" width="290" height="100">
        <rect width="290" height="100" fill="white"/>
    </mask>
    <g mask="url(#mask0_118_891)">
        <rect x="47.9275" y="-7.69287" width="10.9688" height="37.6464" transform="rotate(45 47.9275 -7.69287)"
              fill="#EFF3FD"/>
        <rect x="19.7562" y="1.86377" width="10.9688" height="10.9688" transform="rotate(45 19.7562 1.86377)"
              fill="#EFF3FD"/>
        <rect x="286.678" y="86.5435" width="4.1759" height="14.3323" transform="rotate(45 286.678 86.5435)"
              fill="#EFF3FD"/>
        <rect x="275.953" y="90.1816" width="4.1759" height="4.1759" transform="rotate(45 275.953 90.1816)"
              fill="#EFF3FD"/>
        <rect x="289.678" y="10.5435" width="4.1759" height="14.3323" transform="rotate(45 289.678 10.5435)"
              fill="#EFF3FD"/>
        <rect x="278.953" y="14.1816" width="4.1759" height="4.1759" transform="rotate(45 278.953 14.1816)"
              fill="#EFF3FD"/>
        <rect x="25.9275" y="91.3071" width="10.9688" height="37.6464" transform="rotate(45 25.9275 91.3071)"
              fill="#EFF3FD"/>
    </g>
    <rect x="243.927" y="42.3071" width="10.9688" height="37.6464" transform="rotate(45 243.927 42.3071)"
          fill="#EFF3FD"/>
    <rect x="215.756" y="51.8638" width="10.9688" height="10.9688" transform="rotate(45 215.756 51.8638)"
          fill="#EFF3FD"/>
</svg>
