<svg width="24" height="24" viewBox="0 0 24 24" fill="none" xmlns="http://www.w3.org/2000/svg">
<path fill-rule="evenodd" clip-rule="evenodd" d="M1 12C1 5.92487 5.92487 1 12 1C18.0751 1 23 5.92487 23 12C23 18.0751 18.0751 23 12 23C5.92487 23 1 18.0751 1 12Z" fill="#6871EE"/>
<path fill-rule="evenodd" clip-rule="evenodd" d="M16.9471 7.05269C17.215 7.32052 17.3085 7.71669 17.1887 8.07602L15.0687 14.436C14.9692 14.7346 14.7349 14.9689 14.4363 15.0685L8.07626 17.1885C7.71693 17.3083 7.32076 17.2147 7.05293 16.9469C6.7851 16.6791 6.69158 16.2829 6.81135 15.9236L8.93135 9.56356C9.03089 9.26496 9.2652 9.03064 9.56381 8.93111L15.9238 6.81111C16.2831 6.69133 16.6793 6.78485 16.9471 7.05269Z" fill="#F8D94F"/>
<path fill-rule="evenodd" clip-rule="evenodd" d="M16.9471 7.05269C17.215 7.32052 17.3085 7.71669 17.1887 8.07602L15.0687 14.436C14.9692 14.7346 14.7349 14.9689 14.4363 15.0685L8.07626 17.1885C7.71693 17.3083 7.32076 17.2147 7.05293 16.9469C6.7851 16.6791 6.69158 16.2829 6.81135 15.9236L8.93135 9.56356C9.03089 9.26496 9.2652 9.03064 9.56381 8.93111L15.9238 6.81111C16.2831 6.69133 16.6793 6.78485 16.9471 7.05269ZM10.6706 10.6704L9.34118 14.6587L13.3295 13.3292L14.6589 9.34093L10.6706 10.6704Z" fill="white"/>
</svg>
