<svg width="10" height="10" viewBox="0 0 10 10" fill="none" xmlns="http://www.w3.org/2000/svg">
<g clip-path="url(#clip0_41_1029)">
<path fill-rule="evenodd" clip-rule="evenodd" d="M5 0.833333C4.11594 0.833333 3.26809 1.18452 2.64297 1.80964C2.01785 2.43477 1.66666 3.28261 1.66666 4.16667C1.66666 5.45752 2.50655 6.7101 3.42748 7.68219C3.87942 8.15924 4.33277 8.54978 4.67361 8.82119C4.80046 8.9222 4.91125 9.00633 4.99999 9.07191C5.08874 9.00633 5.19953 8.9222 5.32638 8.82119C5.66722 8.54978 6.12057 8.15924 6.57251 7.68219C7.49344 6.7101 8.33333 5.45752 8.33333 4.16667C8.33333 3.28261 7.98214 2.43477 7.35702 1.80964C6.7319 1.18452 5.88405 0.833333 5 0.833333ZM5 9.58333C4.76887 9.93002 4.76876 9.92995 4.76864 9.92987L4.76745 9.92908L4.76468 9.92721L4.75513 9.92075C4.74701 9.91524 4.73544 9.90733 4.72064 9.89708C4.69105 9.87658 4.64852 9.84672 4.59491 9.808C4.48772 9.73059 4.33598 9.61759 4.1545 9.47309C3.79222 9.1846 3.30807 8.76785 2.82251 8.25531C1.86844 7.24823 0.833328 5.79248 0.833328 4.16667C0.833328 3.0616 1.27232 2.00179 2.05372 1.22039C2.83512 0.438987 3.89493 0 5 0C6.10506 0 7.16487 0.438987 7.94627 1.22039C8.72767 2.00179 9.16666 3.0616 9.16666 4.16667C9.16666 5.79248 8.13155 7.24823 7.17748 8.25531C6.69192 8.76785 6.20777 9.1846 5.84549 9.47309C5.66401 9.61759 5.51227 9.73059 5.40508 9.808C5.35147 9.84672 5.30894 9.87658 5.27935 9.89708C5.26455 9.90733 5.25298 9.91524 5.24486 9.92075L5.23531 9.92721L5.23254 9.92908L5.23166 9.92966C5.23154 9.92974 5.23112 9.93002 5 9.58333ZM5 9.58333L5.23112 9.93002C5.09116 10.0233 4.9086 10.0232 4.76864 9.92987L5 9.58333Z" fill="#5E6178"/>
<path fill-rule="evenodd" clip-rule="evenodd" d="M4.99999 3.33333C4.53976 3.33333 4.16666 3.70643 4.16666 4.16667C4.16666 4.6269 4.53976 5 4.99999 5C5.46023 5 5.83333 4.6269 5.83333 4.16667C5.83333 3.70643 5.46023 3.33333 4.99999 3.33333ZM3.33333 4.16667C3.33333 3.24619 4.07952 2.5 4.99999 2.5C5.92047 2.5 6.66666 3.24619 6.66666 4.16667C6.66666 5.08714 5.92047 5.83333 4.99999 5.83333C4.07952 5.83333 3.33333 5.08714 3.33333 4.16667Z" fill="#5E6178"/>
</g>
<defs>
<clipPath id="clip0_41_1029">
<rect width="10" height="10" fill="white"/>
</clipPath>
</defs>
</svg>
